<?xml version="1.0" encoding="utf-8"?>
<!-- Generator: Adobe Illustrator 26.3.1, SVG Export Plug-In . SVG Version: 6.00 Build 0)  -->
<svg version="1.1" id="Layer_1" xmlns="http://www.w3.org/2000/svg" xmlns:xlink="http://www.w3.org/1999/xlink" x="0px" y="0px"
	 viewBox="0 0 512 512" style="enable-background:new 0 0 512 512;" xml:space="preserve">
<style type="text/css">
	.st0{fill-rule:evenodd;clip-rule:evenodd;}
</style>
<g>
	<path class="st0" d="M442.26,207.09c-2.39-2.81-11.9-11.54-16.94-13.9c-42.67-27.88-96.3-4.17-104.88,26.35
		C368.23,192.69,399.59,202.88,442.26,207.09z M71.06,207.09c42.67-4.04,76.37-12.96,120.58,12.46
		C180.76,178.02,106.86,164.46,71.06,207.09z M223.68,210.34l-7.68,6.13c-9.3,7.69-22.19,16.38-25.52,27.98
		c-0.68,7.5,3.8,23.92,6.53,30.69c4.01-9.21,7.47-26.52,7.47-26.52s11.52-8.13,24.06-16.96c3.16-2.69,6.44-5.17,10.03-9.21
		c10.33-13.44,4.4-41.73-3.58-55.38L223.68,210.34z M42.09,153.67c-2.52,7.17,0.3,16.5,5.21,20.6c4.74,4.29,9.64,3.67,9.43,3.79
		l0.9-8.23l3.88-11.08c2.56-7.65,2.39-22.4,2.01-22.98C63.34,135.09,46.1,138.34,42.09,153.67z M456.34,135.77
		c-0.43,0.58-3.33,14.4-0.98,22.58c0.94,4.4,3.03,8.19,4.65,12.02l3.07,7.69c0,0,4.44-0.81,8.02-5.38
		c3.54-4.35,5.67-11.98,3.93-18.46C472.47,140.38,456.77,135.04,456.34,135.77z M284.99,231.65c12.59,8.83,24.02,16.96,24.02,16.96
		c0.04,0,3.46,17.27,7.51,26.52c12.03-29.71,5.42-35.98-0.98-43.06c-6.66-7.23-24.28-20.25-25.68-21.73l-11.31-43.27
		c-7.6,12.96-13.87,42.02-3.58,55.38C278.55,226.48,281.83,228.96,284.99,231.65z M71.27,207.29l0.6-0.5l-0.81,0.29L71.27,207.29z
		 M168.68,200.44c4.57-3.38,22.06-16.71,20.05-22.04c-20.65-55.25-97.88-46.04-107.56,4l12.33,14.67L168.68,200.44z M409.28,197.06
		l12.29-14.67c-5.89-30.4-38.44-48-69.25-39.56c-29.78,8.19-42.07,36.25-36.44,41.67c5.29,5.1,12.29,11.54,18.22,15.94
		L409.28,197.06z M302.01,125.02c25.39-11.13,46.59-27.46,65.37-47.06c15.32-16.13,29.4-16.5,48.3-7.85
		c7.21,3.33,44.12,21.83,50.56,23.38c12.24,2.9,6.1-16.46-4.78-22.48c-34.77-19.4-74.45-40.63-109.91-19.69
		c-15.27,9.04-48.26,37.9-65.11,39c-8.53,0.6-11.69,3.71-11.9,11.98c0.68,3.94,1.11,7.94,2.18,11.77
		C280.64,128.52,287.89,131.29,302.01,125.02z M53.05,90.88c0,0,32.64-16.06,43.65-20.9c18.94-8.23,32.6-8.04,47.7,7.56
		c22.83,23.52,38.4,35.38,70.4,49.75c8.06,3.62,14.29,1.19,17.83-7.04c2.35-5.5,4.14-11.52,4.78-17.44
		c0.9-8.48-2.69-11.08-11.09-12.67c-18.47-3.46-39.94-22.08-56.79-33.75c-22.4-15.65-50.73-16.42-76.25-7.17
		c-11.05,3.96-42.84,20.04-50.52,30.23l-2.26,12.27C43.62,96.63,48.83,91.94,53.05,90.88z M366.23,410.65
		c-12.59-2.62-39.68-5.75-51.5-1.6c-35.24,12.19-70.57,12.69-106.45,3.31c-25.26-6.6-32.17-6.85-62.42-1.71
		C200.08,492.94,319.68,484.75,366.23,410.65z M500.89,285.84c-3.93-4.15-41.05-44.08-46.08-46.73c2.13,21.02,8.58,14.29,6.27,43.92
		c-2.94,38.71-31.32,36.15-65.19,36.27c-30.85,0.17-34.99-13.77-59.26-23.44c-17.58-7-38.57-3.46-49.32,13.13
		c-4.57,7.04-11.95,10.96-21.25,10.4c-6.14-0.38-12.33-0.33-18.47,0c-10.45,0.56-17.92-3.5-23.6-11.9
		c-7.51-11.08-19.63-15.6-32.09-15.17c-13.44,0.42-25.64,6.48-36.74,14.5c-23,16.71-38.27,11.33-62.72,12.52
		c-24.96,1.25-41.52-17.52-41.64-39.81c-0.09-23.02,3.84-23.06,6.44-40.63c-15.87,9.85-37.08,30.27-49.88,55.08
		c-8.75,16.96-8.62,35.04-5.16,53.15c10.2,53.13,80.64,56.54,134.23,51.63c13.91-1.27,27.69-3.71,41.52-6
		c13.74-2.31,27.31-3.25,40.75,1.83c6.83,2.56,13.7,5.92,20.82,6.69c15.96,1.71,32.43,3.25,47.4-3.83
		c15.23-7.17,30.93-8.69,46.68-4.65c42.84,10.96,129.62,15.69,160.6-16.71c8.62-9.08,14.17-19.19,16.26-31.54
		C513.9,323.81,511.98,303.9,500.89,285.84z M71.06,207.09l-0.6,1.42l0.81-1.21L71.06,207.09z M441.02,207.17l1.24,0.77l-1.45-0.54
		L441.02,207.17z"/>
</g>
</svg>
